<?xml version="1.0" encoding="UTF-8"?>
<!DOCTYPE svg PUBLIC "-//W3C//DTD SVG 1.1//EN" "http://www.w3.org/Graphics/SVG/1.1/DTD/svg11.dtd">
<svg xmlns="http://www.w3.org/2000/svg" version="1.1" width="342px" height="205px" style="shape-rendering:geometricPrecision; text-rendering:geometricPrecision; image-rendering:optimizeQuality; fill-rule:evenodd; clip-rule:evenodd" xmlns:xlink="http://www.w3.org/1999/xlink">
<g><path style="opacity:1" fill="#fafafa" d="M 105.5,21.5 C 106.37,26.2231 108.036,30.5564 110.5,34.5C 111.599,39.1442 113.266,43.4775 115.5,47.5C 117.035,51.4379 118.368,55.4379 119.5,59.5C 124.71,59.3916 129.71,58.7249 134.5,57.5C 137.833,57.5 141.167,57.5 144.5,57.5C 144.5,63.8333 144.5,70.1667 144.5,76.5C 139.484,77.0582 134.484,77.7249 129.5,78.5C 129.5,79.8333 129.5,81.1667 129.5,82.5C 129.12,84.698 129.787,86.3646 131.5,87.5C 131.5,87.8333 131.5,88.1667 131.5,88.5C 131.259,90.8984 131.926,92.8984 133.5,94.5C 139.271,106.137 144.271,118.137 148.5,130.5C 148.5,131.833 148.5,133.167 148.5,134.5C 141.5,134.5 134.5,134.5 127.5,134.5C 125.009,132.648 122.509,130.648 120,128.5C 114.402,115.207 108.902,101.874 103.5,88.5C 101.579,87.359 99.5787,87.1923 97.5,88C 94.7144,90.7262 91.381,92.3928 87.5,93C 82.3475,96.3265 77.6808,100.16 73.5,104.5C 73.6561,93.2185 77.6561,83.3851 85.5,75C 88.2433,72.6338 91.2433,70.8005 94.5,69.5C 92.7835,62.3504 90.4502,55.3504 87.5,48.5C 86.5,47.1667 85.5,47.1667 84.5,48.5C 83.2147,51.0205 82.5481,53.6872 82.5,56.5C 81.2101,57.0577 80.3768,58.0577 80,59.5C 78.1357,63.2634 76.969,67.2634 76.5,71.5C 73.8193,74.1918 72.4859,77.5252 72.5,81.5C 70.732,83.9216 69.232,86.5883 68,89.5C 67.51,90.7932 67.3433,92.1266 67.5,93.5C 66.8826,93.6107 66.3826,93.944 66,94.5C 65.1506,97.5214 64.3173,100.521 63.5,103.5C 59.2662,112.321 55.0995,121.321 51,130.5C 48.5524,131.973 46.0524,133.307 43.5,134.5C 37.1667,134.5 30.8333,134.5 24.5,134.5C 24.5,133.167 24.5,131.833 24.5,130.5C 24.5569,129.391 24.8902,128.391 25.5,127.5C 27.9754,126.313 28.9754,124.313 28.5,121.5C 29.038,119.883 29.3713,118.216 29.5,116.5C 31.7389,112.351 33.7389,108.018 35.5,103.5C 37.8337,101.824 38.8337,99.491 38.5,96.5C 39.038,94.8828 39.3713,93.2161 39.5,91.5C 43.0367,84.4211 46.0367,77.0878 48.5,69.5C 50.9637,65.5564 52.6303,61.2231 53.5,56.5C 59.9767,42.5987 65.9767,28.432 71.5,14C 80.1667,13.3333 88.8333,13.3333 97.5,14C 100.692,16.0282 103.359,18.5282 105.5,21.5 Z"/></g>
<g><path style="opacity:0.008" fill="#141414" d="M 105.5,21.5 C 107.964,25.4436 109.63,29.7769 110.5,34.5C 108.036,30.5564 106.37,26.2231 105.5,21.5 Z"/></g>
<g><path style="opacity:0.014" fill="#131313" d="M 110.5,34.5 C 111.117,34.6107 111.617,34.944 112,35.5C 113.484,39.4468 114.65,43.4468 115.5,47.5C 113.266,43.4775 111.599,39.1442 110.5,34.5 Z"/></g>
<g><path style="opacity:0.071" fill="#292929" d="M 105.5,21.5 C 103.359,18.5282 100.692,16.0282 97.5,14C 88.8333,13.3333 80.1667,13.3333 71.5,14C 65.9767,28.432 59.9767,42.5987 53.5,56.5C 58.7706,41.6895 64.4373,27.0228 70.5,12.5C 79.4815,11.3347 88.4815,11.168 97.5,12C 99.6667,13.5 101.833,15 104,16.5C 105.009,18.0249 105.509,19.6916 105.5,21.5 Z"/></g>
<g><path style="opacity:0.014" fill="#303030" d="M 115.5,47.5 C 117.713,50.0821 119.38,53.0821 120.5,56.5C 122.396,57.4656 124.396,57.7989 126.5,57.5C 129.167,57.5 131.833,57.5 134.5,57.5C 129.71,58.7249 124.71,59.3916 119.5,59.5C 118.368,55.4379 117.035,51.4379 115.5,47.5 Z"/></g>
<g><path style="opacity:0.034" fill="#0d0d0d" d="M 145.5,76.5 C 145.5,69.8333 145.5,63.1667 145.5,56.5C 141.629,56.185 137.962,56.5184 134.5,57.5C 131.833,57.5 129.167,57.5 126.5,57.5C 132.589,55.6131 138.922,54.7798 145.5,55C 146.827,62.2652 146.827,69.4319 145.5,76.5 Z"/></g>
<g><path style="opacity:0.518" fill="#808080" d="M 134.5,57.5 C 137.962,56.5184 141.629,56.185 145.5,56.5C 145.5,63.1667 145.5,69.8333 145.5,76.5C 145.167,76.5 144.833,76.5 144.5,76.5C 144.5,70.1667 144.5,63.8333 144.5,57.5C 141.167,57.5 137.833,57.5 134.5,57.5 Z"/></g>
<g><path style="opacity:0.506" fill="#484848" d="M 264.5,59.5 C 259.138,59.4724 253.805,59.8058 248.5,60.5C 249.833,59.8333 251.167,59.1667 252.5,58.5C 256.598,57.1773 260.598,57.5106 264.5,59.5 Z"/></g>
<g><path style="opacity:0.43" fill="#454545" d="M 307.5,58.5 C 308.5,59.1667 309.5,59.8333 310.5,60.5C 306.202,59.8005 301.869,59.4672 297.5,59.5C 297.5,59.1667 297.5,58.8333 297.5,58.5C 300.833,57.1667 304.167,57.1667 307.5,58.5 Z"/></g>
<g><path style="opacity:0.014" fill="#161616" d="M 53.5,56.5 C 52.6303,61.2231 50.9637,65.5564 48.5,69.5C 49.1988,64.728 50.8655,60.3947 53.5,56.5 Z"/></g>
<g><path style="opacity:1" fill="#f6f6f6" d="M 264.5,59.5 C 267.28,62.0638 270.28,64.3971 273.5,66.5C 274.584,69.0041 275.917,71.3374 277.5,73.5C 277.5,77.1667 277.5,80.8333 277.5,84.5C 266.986,84.1724 256.653,84.5058 246.5,85.5C 246.12,87.698 246.787,89.3646 248.5,90.5C 249.28,93.5531 251.28,95.2197 254.5,95.5C 256.966,96.6341 259.633,96.8007 262.5,96C 264.653,95.9005 266.319,95.0672 267.5,93.5C 268.609,93.4431 269.609,93.1098 270.5,92.5C 271.833,93.8333 273.167,95.1667 274.5,96.5C 274.67,97.8221 274.337,98.9887 273.5,100C 260.443,107.282 248.609,105.782 238,95.5C 231.546,82.5703 233.713,71.4036 244.5,62C 245.745,61.2086 247.078,60.7086 248.5,60.5C 253.805,59.8058 259.138,59.4724 264.5,59.5 Z M 262.5,70.5 C 264.385,72.0532 265.385,74.0532 265.5,76.5C 259.463,76.8293 253.463,76.4959 247.5,75.5C 251.158,70.0583 256.158,68.3916 262.5,70.5 Z"/></g>
<g><path style="opacity:0.999" fill="#f1f1f1" d="M 297.5,59.5 C 301.869,59.4672 306.202,59.8005 310.5,60.5C 314.223,60.8952 317.223,62.5619 319.5,65.5C 318.248,67.0009 317.248,68.6675 316.5,70.5C 315.311,71.4287 313.978,71.762 312.5,71.5C 311.508,71.6716 310.842,71.3382 310.5,70.5C 309.653,69.0337 308.32,68.2004 306.5,68C 303.833,67.3333 301.167,67.3333 298.5,68C 295.007,69.7848 294.674,71.9515 297.5,74.5C 298.635,76.2132 300.302,76.8799 302.5,76.5C 304.042,77.3007 305.708,77.634 307.5,77.5C 310.402,78.6057 313.402,79.7724 316.5,81C 318.55,82.9651 320.217,85.1318 321.5,87.5C 321.674,91.8112 320.674,95.8112 318.5,99.5C 309.011,104.941 299.011,105.941 288.5,102.5C 287.341,100.75 285.674,99.7497 283.5,99.5C 284.398,96.5338 285.731,93.7005 287.5,91C 289.066,90.7003 290.399,91.2003 291.5,92.5C 291.973,93.9063 292.973,94.573 294.5,94.5C 295.609,94.5569 296.609,94.8902 297.5,95.5C 300.976,96.6433 304.642,96.8099 308.5,96C 309.056,95.6174 309.389,95.1174 309.5,94.5C 311.18,92.2736 310.847,90.6069 308.5,89.5C 305.679,87.2878 302.345,86.2878 298.5,86.5C 294.421,84.6935 290.421,82.6935 286.5,80.5C 286.34,78.847 285.674,77.5137 284.5,76.5C 283.454,74.1183 283.454,71.7849 284.5,69.5C 287.097,63.9027 291.43,60.5694 297.5,59.5 Z"/></g>
<g><path style="opacity:0.075" fill="#222222" d="M 307.5,58.5 C 312.262,58.698 316.428,60.3646 320,63.5C 320.136,66.7626 319.136,69.7626 317,72.5C 315.085,73.9156 313.585,73.5822 312.5,71.5C 313.978,71.762 315.311,71.4287 316.5,70.5C 317.248,68.6675 318.248,67.0009 319.5,65.5C 317.223,62.5619 314.223,60.8952 310.5,60.5C 309.5,59.8333 308.5,59.1667 307.5,58.5 Z"/></g>
<g><path style="opacity:1" fill="#f6f6f6" d="M 167.5,67.5 C 167.62,70.5779 168.62,73.2446 170.5,75.5C 170.733,78.5418 171.733,81.2084 173.5,83.5C 173.383,85.4835 174.05,87.1502 175.5,88.5C 176.386,87.675 176.719,86.675 176.5,85.5C 177.401,84.7095 178.068,83.7095 178.5,82.5C 179.537,81.0697 180.204,79.403 180.5,77.5C 181.699,73.9014 182.699,70.2347 183.5,66.5C 184.771,64.8914 185.771,63.0581 186.5,61C 190.486,60.5012 194.486,60.3345 198.5,60.5C 192.117,76.8036 185.617,93.1369 179,109.5C 177.392,113.912 174.892,117.579 171.5,120.5C 170.5,120.5 169.5,120.5 168.5,120.5C 164.833,120.5 161.167,120.5 157.5,120.5C 157.5,119.167 157.5,117.833 157.5,116.5C 157.5,114.833 157.5,113.167 157.5,111.5C 164.022,112.92 167.689,110.42 168.5,104C 163.563,89.3046 158.23,74.8046 152.5,60.5C 156.555,60.1758 160.555,60.5091 164.5,61.5C 165.519,63.604 166.519,65.604 167.5,67.5 Z"/></g>
<g><path style="opacity:0.051" fill="#303030" d="M 82.5,56.5 C 81.2565,61.917 79.2565,66.917 76.5,71.5C 76.969,67.2634 78.1357,63.2634 80,59.5C 80.3768,58.0577 81.2101,57.0577 82.5,56.5 Z"/></g>
<g><path style="opacity:0.02" fill="#2c2c2c" d="M 167.5,67.5 C 166.519,65.604 165.519,63.604 164.5,61.5C 160.555,60.5091 156.555,60.1758 152.5,60.5C 158.23,74.8046 163.563,89.3046 168.5,104C 167.689,110.42 164.022,112.92 157.5,111.5C 157.5,113.167 157.5,114.833 157.5,116.5C 156.549,117.919 156.216,119.585 156.5,121.5C 155.853,120.726 155.52,119.726 155.5,118.5C 155.936,115.821 156.436,113.155 157,110.5C 159.405,109.726 161.905,109.226 164.5,109C 166.01,107.649 167.01,105.982 167.5,104C 162.529,90.7543 157.363,77.5876 152,64.5C 151.505,62.5273 151.338,60.5273 151.5,58.5C 155.846,58.3343 160.179,58.501 164.5,59C 166.497,61.4916 167.497,64.325 167.5,67.5 Z"/></g>
<g><path style="opacity:0.216" fill="#232323" d="M 264.5,59.5 C 268.837,60.1628 271.837,62.4962 273.5,66.5C 270.28,64.3971 267.28,62.0638 264.5,59.5 Z"/></g>
<g><path style="opacity:0.063" fill="#262626" d="M 252.5,58.5 C 251.167,59.1667 249.833,59.8333 248.5,60.5C 247.078,60.7086 245.745,61.2086 244.5,62C 233.713,71.4036 231.546,82.5703 238,95.5C 248.609,105.782 260.443,107.282 273.5,100C 274.337,98.9887 274.67,97.8221 274.5,96.5C 275.289,96.7828 275.956,97.2828 276.5,98C 274.259,101.796 270.926,104.129 266.5,105C 247.01,109.262 235.677,101.595 232.5,82C 232.694,73.1497 236.361,66.1497 243.5,61C 246.206,59.0924 249.206,58.259 252.5,58.5 Z"/></g>
<g><path style="opacity:0.09" fill="#1d1d1d" d="M 297.5,58.5 C 297.5,58.8333 297.5,59.1667 297.5,59.5C 291.43,60.5694 287.097,63.9027 284.5,69.5C 286.074,62.5941 290.407,58.9274 297.5,58.5 Z"/></g>
<g><path style="opacity:0.028" fill="#2b2b2b" d="M 310.5,70.5 C 306.537,69.56 302.537,69.3933 298.5,70C 297.833,70.6667 297.167,71.3333 296.5,72C 300.177,73.659 303.844,75.159 307.5,76.5C 307.5,76.8333 307.5,77.1667 307.5,77.5C 305.708,77.634 304.042,77.3007 302.5,76.5C 301.07,75.4625 299.403,74.7959 297.5,74.5C 294.674,71.9515 295.007,69.7848 298.5,68C 301.167,67.3333 303.833,67.3333 306.5,68C 308.32,68.2004 309.653,69.0337 310.5,70.5 Z"/></g>
<g><path style="opacity:0.008" fill="#1c1c1c" d="M 167.5,67.5 C 169.585,69.6845 170.585,72.3511 170.5,75.5C 168.62,73.2446 167.62,70.5779 167.5,67.5 Z"/></g>
<g><path style="opacity:0.039" fill="#1a1a1a" d="M 273.5,66.5 C 276.112,68.0522 277.445,70.3855 277.5,73.5C 275.917,71.3374 274.584,69.0041 273.5,66.5 Z"/></g>
<g><path style="opacity:0.059" fill="#161616" d="M 183.5,66.5 C 182.699,70.2347 181.699,73.9014 180.5,77.5C 180.167,77.5 179.833,77.5 179.5,77.5C 180.025,73.467 181.358,69.8004 183.5,66.5 Z"/></g>
<g><path style="opacity:0.584" fill="#808080" d="M 297.5,74.5 C 299.403,74.7959 301.07,75.4625 302.5,76.5C 300.302,76.8799 298.635,76.2132 297.5,74.5 Z"/></g>
<g><path style="opacity:0.08" fill="#1d1d1d" d="M 262.5,70.5 C 264.833,70.8333 266.167,72.1667 266.5,74.5C 266.5,75.5 266.5,76.5 266.5,77.5C 259.416,78.1255 252.75,77.4589 246.5,75.5C 246.84,72.3252 248.507,70.1585 251.5,69C 254.5,68.3333 257.5,68.3333 260.5,69C 261.416,69.2784 262.082,69.7784 262.5,70.5 Z M 262.5,70.5 C 256.158,68.3916 251.158,70.0583 247.5,75.5C 253.463,76.4959 259.463,76.8293 265.5,76.5C 265.385,74.0532 264.385,72.0532 262.5,70.5 Z"/></g>
<g><path style="opacity:0.051" fill="#2b2b2b" d="M 76.5,71.5 C 75.7365,75.1368 74.4032,78.4701 72.5,81.5C 72.4859,77.5252 73.8193,74.1918 76.5,71.5 Z"/></g>
<g><path style="opacity:0.014" fill="#151515" d="M 170.5,75.5 C 172.267,77.7916 173.267,80.4582 173.5,83.5C 171.733,81.2084 170.733,78.5418 170.5,75.5 Z"/></g>
<g><path style="opacity:0.525" fill="#8a8a8a" d="M 266.5,74.5 C 267.434,75.5676 267.768,76.901 267.5,78.5C 260.167,78.5 252.833,78.5 245.5,78.5C 245.263,77.209 245.596,76.209 246.5,75.5C 252.75,77.4589 259.416,78.1255 266.5,77.5C 266.5,76.5 266.5,75.5 266.5,74.5 Z"/></g>
<g><path style="opacity:0.063" fill="#212121" d="M 284.5,76.5 C 285.674,77.5137 286.34,78.847 286.5,80.5C 284.896,79.713 284.229,78.3797 284.5,76.5 Z"/></g>
<g><path style="opacity:0.659" fill="#6f6f6f" d="M 179.5,77.5 C 179.833,77.5 180.167,77.5 180.5,77.5C 180.204,79.403 179.537,81.0697 178.5,82.5C 178.5,81.8333 178.5,81.1667 178.5,80.5C 178.263,79.209 178.596,78.209 179.5,77.5 Z"/></g>
<g><path style="opacity:0.025" fill="#242424" d="M 307.5,76.5 C 315.16,76.5044 319.826,80.1711 321.5,87.5C 320.217,85.1318 318.55,82.9651 316.5,81C 313.402,79.7724 310.402,78.6057 307.5,77.5C 307.5,77.1667 307.5,76.8333 307.5,76.5 Z"/></g>
<g><path style="opacity:0.055" fill="#202020" d="M 144.5,76.5 C 144.833,76.5 145.167,76.5 145.5,76.5C 145.209,77.6491 144.376,78.3158 143,78.5C 138.77,79.0562 134.603,79.8896 130.5,81C 132.002,84.0047 133.002,87.1714 133.5,90.5C 132.833,89.8333 132.167,89.1667 131.5,88.5C 131.5,88.1667 131.5,87.8333 131.5,87.5C 131.204,85.597 130.537,83.9303 129.5,82.5C 129.5,81.1667 129.5,79.8333 129.5,78.5C 134.484,77.7249 139.484,77.0582 144.5,76.5 Z"/></g>
<g><path style="opacity:0.561" fill="#3d3d3d" d="M 286.5,80.5 C 290.421,82.6935 294.421,84.6935 298.5,86.5C 293.379,86.5803 289.379,84.5803 286.5,80.5 Z"/></g>
<g><path style="opacity:0.164" fill="#2d2d2d" d="M 219.5,61.5 C 222.241,58.8098 225.575,57.6432 229.5,58C 230.467,62.4014 230.8,66.9014 230.5,71.5C 225.394,70.9253 220.894,72.2587 217,75.5C 216.667,85.1667 216.333,94.8333 216,104.5C 212.256,105.626 208.423,105.793 204.5,105C 203.509,89.5779 203.176,74.0779 203.5,58.5C 207.833,58.5 212.167,58.5 216.5,58.5C 216.343,59.8734 216.51,61.2068 217,62.5C 217.671,61.7476 218.504,61.4142 219.5,61.5 Z"/></g>
<g><path style="opacity:0.869" fill="#bdbdbd" d="M 224.5,70.5 C 225.568,69.5655 226.901,69.2322 228.5,69.5C 228.5,66.5 228.5,63.5 228.5,60.5C 226.194,60.9926 223.861,61.3259 221.5,61.5C 223.78,59.7773 226.447,59.1107 229.5,59.5C 229.5,63.1667 229.5,66.8333 229.5,70.5C 227.833,70.5 226.167,70.5 224.5,70.5 Z"/></g>
<g><path style="opacity:0.873" fill="#e1e1e1" d="M 215.5,65.5 C 214.566,64.4324 214.232,63.099 214.5,61.5C 211.5,61.5 208.5,61.5 205.5,61.5C 205.5,75.1667 205.5,88.8333 205.5,102.5C 208.5,102.5 211.5,102.5 214.5,102.5C 214.173,92.985 214.506,83.6517 215.5,74.5C 215.5,84.1667 215.5,93.8333 215.5,103.5C 211.833,103.5 208.167,103.5 204.5,103.5C 204.5,89.1667 204.5,74.8333 204.5,60.5C 208.167,60.5 211.833,60.5 215.5,60.5C 215.5,62.1667 215.5,63.8333 215.5,65.5 Z"/></g>
<g><path style="opacity:1" fill="#fcfcfc" d="M 224.5,70.5 C 220.871,70.4825 217.871,71.8158 215.5,74.5C 214.506,83.6517 214.173,92.985 214.5,102.5C 211.5,102.5 208.5,102.5 205.5,102.5C 205.5,88.8333 205.5,75.1667 205.5,61.5C 208.5,61.5 211.5,61.5 214.5,61.5C 214.232,63.099 214.566,64.4324 215.5,65.5C 217.264,64.674 218.598,63.3407 219.5,61.5C 220.167,61.5 220.833,61.5 221.5,61.5C 223.861,61.3259 226.194,60.9926 228.5,60.5C 228.5,63.5 228.5,66.5 228.5,69.5C 226.901,69.2322 225.568,69.5655 224.5,70.5 Z"/></g>
<g><path style="opacity:0.02" fill="#2d2d2d" d="M 171.5,120.5 C 174.892,117.579 177.392,113.912 179,109.5C 185.617,93.1369 192.117,76.8036 198.5,60.5C 194.486,60.3345 190.486,60.5012 186.5,61C 185.771,63.0581 184.771,64.8914 183.5,66.5C 183.084,60.0033 186.084,57.3366 192.5,58.5C 194.833,58.6667 197.167,58.8333 199.5,59C 199.957,59.414 200.291,59.914 200.5,60.5C 192.96,79.2515 185.127,97.9181 177,116.5C 175.549,118.464 173.716,119.797 171.5,120.5 Z"/></g>
<g><path style="opacity:0.043" fill="#161616" d="M 178.5,80.5 C 178.5,81.1667 178.5,81.8333 178.5,82.5C 178.068,83.7095 177.401,84.7095 176.5,85.5C 176.402,83.4471 177.069,81.7804 178.5,80.5 Z"/></g>
<g><path style="opacity:0.816" fill="#b5b5b5" d="M 277.5,73.5 C 278.451,74.9187 278.784,76.5853 278.5,78.5C 278.5,80.8333 278.5,83.1667 278.5,85.5C 267.833,85.5 257.167,85.5 246.5,85.5C 256.653,84.5058 266.986,84.1724 277.5,84.5C 277.5,80.8333 277.5,77.1667 277.5,73.5 Z"/></g>
<g><path style="opacity:0.761" fill="#878787" d="M 129.5,82.5 C 130.537,83.9303 131.204,85.597 131.5,87.5C 129.787,86.3646 129.12,84.698 129.5,82.5 Z"/></g>
<g><path style="opacity:0.016" fill="#131313" d="M 173.5,83.5 C 174.222,84.5511 175.222,85.2178 176.5,85.5C 176.719,86.675 176.386,87.675 175.5,88.5C 174.05,87.1502 173.383,85.4835 173.5,83.5 Z"/></g>
<g><path style="opacity:0.302" fill="#222222" d="M 278.5,78.5 C 279.473,80.9479 279.806,83.6146 279.5,86.5C 269.578,86.508 259.578,86.6746 249.5,87C 248.663,88.0113 248.33,89.1779 248.5,90.5C 246.787,89.3646 246.12,87.698 246.5,85.5C 257.167,85.5 267.833,85.5 278.5,85.5C 278.5,83.1667 278.5,80.8333 278.5,78.5 Z"/></g>
<g><path style="opacity:0.039" fill="#151515" d="M 48.5,69.5 C 46.0367,77.0878 43.0367,84.4211 39.5,91.5C 41.0767,85.0026 43.2434,78.6692 46,72.5C 46.3768,71.0577 47.2101,70.0577 48.5,69.5 Z"/></g>
<g><path style="opacity:0.026" fill="#1d1d1d" d="M 298.5,86.5 C 302.345,86.2878 305.679,87.2878 308.5,89.5C 304.884,89.1007 301.55,88.1007 298.5,86.5 Z"/></g>
<g><path style="opacity:0.098" fill="#2e2e2e" d="M 72.5,81.5 C 71.9034,86.0169 70.2367,90.0169 67.5,93.5C 67.3433,92.1266 67.51,90.7932 68,89.5C 69.232,86.5883 70.732,83.9216 72.5,81.5 Z"/></g>
<g><path style="opacity:0.114" fill="#191919" d="M 293.5,92.5 C 292.833,92.5 292.167,92.5 291.5,92.5C 290.399,91.2003 289.066,90.7003 287.5,91C 285.731,93.7005 284.398,96.5338 283.5,99.5C 282.641,95.1731 284.141,91.5065 288,88.5C 290.015,89.6966 291.849,91.0299 293.5,92.5 Z"/></g>
<g><path style="opacity:0.058" fill="#1a1a1a" d="M 321.5,87.5 C 322.629,89.6282 322.796,91.9615 322,94.5C 321.777,96.8808 320.61,98.5475 318.5,99.5C 320.674,95.8112 321.674,91.8112 321.5,87.5 Z"/></g>
<g><path style="opacity:0.925" fill="#a9a9a9" d="M 131.5,88.5 C 132.167,89.1667 132.833,89.8333 133.5,90.5C 133.5,91.8333 133.5,93.1667 133.5,94.5C 131.926,92.8984 131.259,90.8984 131.5,88.5 Z"/></g>
<g><path style="opacity:0.761" fill="#8b8b8b" d="M 268.5,91.5 C 269.492,91.3284 270.158,91.6618 270.5,92.5C 269.609,93.1098 268.609,93.4431 267.5,93.5C 267.833,92.8333 268.167,92.1667 268.5,91.5 Z"/></g>
<g><path style="opacity:0.014" fill="#191919" d="M 248.5,90.5 C 254.977,94.0879 261.644,94.4212 268.5,91.5C 268.167,92.1667 267.833,92.8333 267.5,93.5C 263.257,94.6813 258.924,95.348 254.5,95.5C 251.28,95.2197 249.28,93.5531 248.5,90.5 Z"/></g>
<g><path style="opacity:0.039" fill="#131313" d="M 268.5,91.5 C 272.033,90.6554 274.033,92.3221 274.5,96.5C 273.167,95.1667 271.833,93.8333 270.5,92.5C 270.158,91.6618 269.492,91.3284 268.5,91.5 Z"/></g>
<g><path style="opacity:0.569" fill="#898989" d="M 291.5,92.5 C 292.167,92.5 292.833,92.5 293.5,92.5C 293.833,93.1667 294.167,93.8333 294.5,94.5C 292.973,94.573 291.973,93.9063 291.5,92.5 Z"/></g>
<g><path style="opacity:0.041" fill="#1f1f1f" d="M 308.5,89.5 C 310.847,90.6069 311.18,92.2736 309.5,94.5C 305.566,95.3597 301.566,95.693 297.5,95.5C 296.609,94.8902 295.609,94.5569 294.5,94.5C 294.167,93.8333 293.833,93.1667 293.5,92.5C 298.406,94.4858 303.406,94.8191 308.5,93.5C 308.5,92.1667 308.5,90.8333 308.5,89.5 Z"/></g>
<g><path style="opacity:0.608" fill="#9d9d9d" d="M 267.5,93.5 C 266.319,95.0672 264.653,95.9005 262.5,96C 259.633,96.8007 256.966,96.6341 254.5,95.5C 258.924,95.348 263.257,94.6813 267.5,93.5 Z"/></g>
<g><path style="opacity:0.5" fill="#939393" d="M 309.5,94.5 C 309.389,95.1174 309.056,95.6174 308.5,96C 304.642,96.8099 300.976,96.6433 297.5,95.5C 301.566,95.693 305.566,95.3597 309.5,94.5 Z"/></g>
<g><path style="opacity:0.918" fill="#a4a4a4" d="M 38.5,96.5 C 38.8337,99.491 37.8337,101.824 35.5,103.5C 35.9348,100.843 36.9348,98.5093 38.5,96.5 Z"/></g>
<g><path style="opacity:0.086" fill="#272727" d="M 67.5,93.5 C 67.1277,97.2971 65.7943,100.63 63.5,103.5C 64.3173,100.521 65.1506,97.5214 66,94.5C 66.3826,93.944 66.8826,93.6107 67.5,93.5 Z"/></g>
<g><path style="opacity:0.118" fill="#232323" d="M 283.5,99.5 C 285.674,99.7497 287.341,100.75 288.5,102.5C 286.326,102.25 284.659,101.25 283.5,99.5 Z"/></g>
<g><path style="opacity:0.043" fill="#181818" d="M 133.5,90.5 C 139.795,103.371 145.128,116.704 149.5,130.5C 149.167,130.5 148.833,130.5 148.5,130.5C 144.271,118.137 139.271,106.137 133.5,94.5C 133.5,93.1667 133.5,91.8333 133.5,90.5 Z"/></g>
<g><path style="opacity:0.114" fill="#2b2b2b" d="M 127.5,134.5 C 127.5,134.833 127.5,135.167 127.5,135.5C 123.209,134.764 120.042,132.431 118,128.5C 112.691,115.568 107.191,102.734 101.5,90C 91.2328,92.9755 82.2328,98.3088 74.5,106C 73.0069,107.368 71.5069,107.535 70,106.5C 72.1097,96.8447 75.443,87.5114 80,78.5C 84.068,74.2626 88.2347,70.2626 92.5,66.5C 90.5948,61.0281 88.4281,55.6948 86,50.5C 85.059,52.7274 83.8923,54.7274 82.5,56.5C 82.5481,53.6872 83.2147,51.0205 84.5,48.5C 85.5,47.1667 86.5,47.1667 87.5,48.5C 90.4502,55.3504 92.7835,62.3504 94.5,69.5C 91.2433,70.8005 88.2433,72.6338 85.5,75C 77.6561,83.3851 73.6561,93.2185 73.5,104.5C 77.6808,100.16 82.3475,96.3265 87.5,93C 91.381,92.3928 94.7144,90.7262 97.5,88C 99.5787,87.1923 101.579,87.359 103.5,88.5C 108.902,101.874 114.402,115.207 120,128.5C 122.509,130.648 125.009,132.648 127.5,134.5 Z"/></g>
<g><path style="opacity:0.031" fill="#2f2f2f" d="M 318.5,99.5 C 317.374,101.453 315.708,102.953 313.5,104C 304.807,107.392 296.473,106.892 288.5,102.5C 299.011,105.941 309.011,104.941 318.5,99.5 Z"/></g>
<g><path style="opacity:0.014" fill="#151515" d="M 39.5,91.5 C 39.3713,93.2161 39.038,94.8828 38.5,96.5C 36.9348,98.5093 35.9348,100.843 35.5,103.5C 33.7389,108.018 31.7389,112.351 29.5,116.5C 31.0767,110.003 33.2434,103.669 36,97.5C 36.941,95.2726 38.1077,93.2726 39.5,91.5 Z"/></g>
<g><path style="opacity:0.765" fill="#9c9c9c" d="M 157.5,116.5 C 157.5,117.833 157.5,119.167 157.5,120.5C 161.167,120.5 164.833,120.5 168.5,120.5C 164.702,121.483 160.702,121.817 156.5,121.5C 156.216,119.585 156.549,117.919 157.5,116.5 Z"/></g>
<g><path style="opacity:0.039" fill="#151515" d="M 29.5,116.5 C 29.3713,118.216 29.038,119.883 28.5,121.5C 27.8571,123.076 26.8571,124.41 25.5,125.5C 26.0421,122.088 27.3754,119.088 29.5,116.5 Z"/></g>
<g><path style="opacity:0.282" fill="#222222" d="M 168.5,120.5 C 169.5,120.5 170.5,120.5 171.5,120.5C 168.518,122.241 165.185,123.241 161.5,123.5C 159.443,123.564 157.777,122.898 156.5,121.5C 160.702,121.817 164.702,121.483 168.5,120.5 Z"/></g>
<g><path style="opacity:0.075" fill="#252525" d="M 63.5,103.5 C 61.0885,112.897 57.5885,121.897 53,130.5C 50.8995,133.467 48.0662,135.3 44.5,136C 38.1162,136.206 31.7829,136.706 25.5,137.5C 21.7474,133.655 21.7474,129.655 25.5,125.5C 25.5,126.167 25.5,126.833 25.5,127.5C 24.8902,128.391 24.5569,129.391 24.5,130.5C 23.5489,131.919 23.2155,133.585 23.5,135.5C 30.3543,135.824 37.021,135.491 43.5,134.5C 46.0524,133.307 48.5524,131.973 51,130.5C 55.0995,121.321 59.2662,112.321 63.5,103.5 Z"/></g>
<g><path style="opacity:0.973" fill="#adadad" d="M 28.5,121.5 C 28.9754,124.313 27.9754,126.313 25.5,127.5C 25.5,126.833 25.5,126.167 25.5,125.5C 26.8571,124.41 27.8571,123.076 28.5,121.5 Z"/></g>
<g><path style="opacity:0.506" fill="#7a7a7a" d="M 24.5,130.5 C 24.5,131.833 24.5,133.167 24.5,134.5C 30.8333,134.5 37.1667,134.5 43.5,134.5C 37.021,135.491 30.3543,135.824 23.5,135.5C 23.2155,133.585 23.5489,131.919 24.5,130.5 Z"/></g>
<g><path style="opacity:0.525" fill="#888888" d="M 148.5,130.5 C 148.833,130.5 149.167,130.5 149.5,130.5C 149.5,132.167 149.5,133.833 149.5,135.5C 142.167,135.5 134.833,135.5 127.5,135.5C 127.5,135.167 127.5,134.833 127.5,134.5C 134.5,134.5 141.5,134.5 148.5,134.5C 148.5,133.167 148.5,131.833 148.5,130.5 Z"/></g>
<g><path style="opacity:0.132" fill="#171717" d="M 149.5,130.5 C 152.363,133.397 151.863,135.731 148,137.5C 141.023,136.885 134.19,136.218 127.5,135.5C 134.833,135.5 142.167,135.5 149.5,135.5C 149.5,133.833 149.5,132.167 149.5,130.5 Z"/></g>
<g><path style="opacity:0.02" fill="#191919" d="M 199.5,188.5 C 199.5,178.5 199.5,168.5 199.5,158.5C 196.833,158.5 194.167,158.5 191.5,158.5C 191.5,168.5 191.5,178.5 191.5,188.5C 190.506,178.347 190.172,168.014 190.5,157.5C 191.873,157.657 193.207,157.49 194.5,157C 190.708,154.947 189.542,151.781 191,147.5C 198.522,143.675 201.522,146.008 200,154.5C 199.308,155.025 198.808,155.692 198.5,156.5C 199.785,161.824 200.451,167.324 200.5,173C 200.499,178.344 200.166,183.511 199.5,188.5 Z"/></g>
<g><path style="opacity:0.999" fill="#e0e0e0" d="M 192.5,147.5 C 199.536,146.603 201.203,149.103 197.5,155C 191.785,155.401 190.119,152.901 192.5,147.5 Z"/></g>
<g><path style="opacity:1" fill="#f4f4f4" d="M 96.5,185.5 C 89.7891,190.11 84.2891,188.777 80,181.5C 78.8054,177.249 78.3054,172.915 78.5,168.5C 78.5,168.167 78.5,167.833 78.5,167.5C 79.7891,164.609 81.7891,162.275 84.5,160.5C 87.4299,159.701 90.4299,159.368 93.5,159.5C 95.1288,160.625 96.6288,161.959 98,163.5C 98.3988,163.272 98.5654,162.938 98.5,162.5C 99.4834,158.702 99.8168,154.702 99.5,150.5C 101.5,150.5 103.5,150.5 105.5,150.5C 105.5,162.5 105.5,174.5 105.5,186.5C 103.5,186.5 101.5,186.5 99.5,186.5C 99.8529,181.522 98.8529,181.188 96.5,185.5 Z M 96.5,167.5 C 97.4922,170.779 97.6588,174.112 97,177.5C 94.6953,180.61 92.1953,180.943 89.5,178.5C 86.5101,174.337 86.8434,170.504 90.5,167C 92.5454,166.51 94.5454,166.677 96.5,167.5 Z"/></g>
<g><path style="opacity:0.999" fill="#f3f3f3" d="M 180.5,151.5 C 183.2,153.234 185.2,155.568 186.5,158.5C 186.02,171.934 179.02,177.6 165.5,175.5C 164.518,178.962 164.185,182.629 164.5,186.5C 162.5,186.5 160.5,186.5 158.5,186.5C 158.5,174.5 158.5,162.5 158.5,150.5C 165.858,150.418 173.191,150.752 180.5,151.5 Z M 166.5,157.5 C 169.187,157.336 171.854,157.503 174.5,158C 177.311,161.294 176.978,164.294 173.5,167C 171.19,167.497 168.857,167.663 166.5,167.5C 166.5,164.167 166.5,160.833 166.5,157.5 Z"/></g>
<g><path style="opacity:0.863" fill="#cfcfcf" d="M 96.5,185.5 C 98.8529,181.188 99.8529,181.522 99.5,186.5C 101.5,186.5 103.5,186.5 105.5,186.5C 105.5,174.5 105.5,162.5 105.5,150.5C 103.5,150.5 101.5,150.5 99.5,150.5C 99.8168,154.702 99.4834,158.702 98.5,162.5C 98.5,158.167 98.5,153.833 98.5,149.5C 101.167,149.5 103.833,149.5 106.5,149.5C 106.5,162.167 106.5,174.833 106.5,187.5C 102.917,187.768 99.5836,187.101 96.5,185.5 Z"/></g>
<g><path style="opacity:0.165" fill="#2b2b2b" d="M 178.5,149.5 C 171.5,149.5 164.5,149.5 157.5,149.5C 157.5,162.167 157.5,174.833 157.5,187.5C 160.167,187.5 162.833,187.5 165.5,187.5C 165.5,187.833 165.5,188.167 165.5,188.5C 162.77,189.817 159.937,189.817 157,188.5C 156.333,175.167 156.333,161.833 157,148.5C 159.914,147.855 162.914,147.522 166,147.5C 170.442,147.326 174.609,147.993 178.5,149.5 Z"/></g>
<g><path style="opacity:0.263" fill="#222222" d="M 178.5,149.5 C 183.247,150.584 185.914,153.584 186.5,158.5C 185.2,155.568 183.2,153.234 180.5,151.5C 179.833,150.833 179.167,150.167 178.5,149.5 Z"/></g>
<g><path style="opacity:0.039" fill="#0f0f0f" d="M 206.5,147.5 C 209.448,147.223 212.281,147.556 215,148.5C 215.822,162.075 215.656,175.575 214.5,189C 211.24,189.784 208.073,189.617 205,188.5C 204.833,181.833 204.667,175.167 204.5,168.5C 204.537,161.264 205.204,154.264 206.5,147.5 Z"/></g>
<g><path style="opacity:1" fill="#e0e0e0" d="M 205.5,149.5 C 208.5,149.5 211.5,149.5 214.5,149.5C 214.667,162.171 214.5,174.838 214,187.5C 211.333,188.833 208.667,188.833 206,187.5C 205.5,174.838 205.333,162.171 205.5,149.5 Z"/></g>
<g><path style="opacity:0.874" fill="#d4d4d4" d="M 178.5,149.5 C 179.167,150.167 179.833,150.833 180.5,151.5C 173.191,150.752 165.858,150.418 158.5,150.5C 158.5,162.5 158.5,174.5 158.5,186.5C 160.5,186.5 162.5,186.5 164.5,186.5C 164.185,182.629 164.518,178.962 165.5,175.5C 165.5,179.5 165.5,183.5 165.5,187.5C 162.833,187.5 160.167,187.5 157.5,187.5C 157.5,174.833 157.5,162.167 157.5,149.5C 164.5,149.5 171.5,149.5 178.5,149.5 Z"/></g>
<g><path style="opacity:0.082" fill="#0c0c0c" d="M 131.5,158.5 C 128.167,158.5 124.833,158.5 121.5,158.5C 124.72,156.293 128.053,156.293 131.5,158.5 Z"/></g>
<g><path style="opacity:0.133" fill="#131313" d="M 269.5,158.5 C 267.167,158.5 264.833,158.5 262.5,158.5C 264.764,156.109 267.098,156.109 269.5,158.5 Z"/></g>
<g><path style="opacity:0.569" fill="#858585" d="M 85.5,158.5 C 88.3854,158.194 91.0521,158.527 93.5,159.5C 90.4299,159.368 87.4299,159.701 84.5,160.5C 84.8333,159.833 85.1667,159.167 85.5,158.5 Z"/></g>
<g><path style="opacity:0.09" fill="#232323" d="M 165.5,155.5 C 176.075,154.048 179.408,158.048 175.5,167.5C 172.242,168.417 168.909,168.751 165.5,168.5C 165.5,164.167 165.5,159.833 165.5,155.5 Z M 166.5,157.5 C 166.5,160.833 166.5,164.167 166.5,167.5C 168.857,167.663 171.19,167.497 173.5,167C 176.978,164.294 177.311,161.294 174.5,158C 171.854,157.503 169.187,157.336 166.5,157.5 Z"/></g>
<g><path style="opacity:0.582" fill="#898989" d="M 262.5,159.5 C 262.5,159.167 262.5,158.833 262.5,158.5C 264.833,158.5 267.167,158.5 269.5,158.5C 269.768,160.099 269.434,161.432 268.5,162.5C 268.5,161.5 268.5,160.5 268.5,159.5C 266.5,159.5 264.5,159.5 262.5,159.5 Z"/></g>
<g><path style="opacity:0.09" fill="#1d1d1d" d="M 121.5,158.5 C 120.653,159.966 119.32,160.8 117.5,161C 115.934,163.326 114.268,165.492 112.5,167.5C 113.167,162.167 116.167,159.167 121.5,158.5 Z"/></g>
<g><path style="opacity:0.999" fill="#e8e8e8" d="M 121.5,158.5 C 124.833,158.5 128.167,158.5 131.5,158.5C 134.452,160.785 137.118,163.452 139.5,166.5C 139.5,166.833 139.5,167.167 139.5,167.5C 139.5,170.167 139.5,172.833 139.5,175.5C 133.167,175.5 126.833,175.5 120.5,175.5C 120.232,177.099 120.566,178.432 121.5,179.5C 121.611,180.117 121.944,180.617 122.5,181C 123.833,181.167 125.167,181.333 126.5,181.5C 130.618,179.941 134.952,179.275 139.5,179.5C 139.5,180.5 139.5,181.5 139.5,182.5C 137.102,184.548 134.436,186.381 131.5,188C 127.848,188.499 124.182,188.665 120.5,188.5C 120.027,187.094 119.027,186.427 117.5,186.5C 113.047,180.977 111.38,174.644 112.5,167.5C 114.268,165.492 115.934,163.326 117.5,161C 119.32,160.8 120.653,159.966 121.5,158.5 Z M 123.5,166.5 C 126.073,166.148 128.406,166.648 130.5,168C 127.833,168.667 125.167,168.667 122.5,168C 123.056,167.617 123.389,167.117 123.5,166.5 Z"/></g>
<g><path style="opacity:0.114" fill="#252525" d="M 227.5,158.5 C 227.5,158.833 227.5,159.167 227.5,159.5C 225.289,160.123 223.289,161.123 221.5,162.5C 222.392,159.708 224.392,158.375 227.5,158.5 Z"/></g>
<g><path style="opacity:0.999" fill="#efefef" d="M 227.5,159.5 C 231.514,159.334 235.514,159.501 239.5,160C 240.685,161.353 242.019,162.52 243.5,163.5C 244.469,171.444 244.802,179.444 244.5,187.5C 242.167,187.5 239.833,187.5 237.5,187.5C 237.719,186.325 237.386,185.325 236.5,184.5C 232.983,188.13 228.65,189.464 223.5,188.5C 218.971,183.751 218.304,178.417 221.5,172.5C 222.167,172.5 222.833,172.5 223.5,172.5C 227.49,172.001 231.49,171.501 235.5,171C 236.056,170.617 236.389,170.117 236.5,169.5C 237.259,165.76 235.759,164.093 232,164.5C 230.045,164.641 228.545,165.474 227.5,167C 225.19,167.497 222.857,167.663 220.5,167.5C 220.629,165.784 220.962,164.117 221.5,162.5C 223.289,161.123 225.289,160.123 227.5,159.5 Z M 233.5,176.5 C 235.028,176.517 235.528,177.184 235,178.5C 233.511,180.332 231.678,181.165 229.5,181C 228.549,180.282 228.383,179.449 229,178.5C 230.622,177.901 232.122,177.234 233.5,176.5 Z"/></g>
<g><path style="opacity:0.999" fill="#f6f6f6" d="M 262.5,159.5 C 264.5,159.5 266.5,159.5 268.5,159.5C 268.5,160.5 268.5,161.5 268.5,162.5C 268.443,163.609 268.11,164.609 267.5,165.5C 264.03,164.875 261.196,165.875 259,168.5C 258.5,174.825 258.334,181.158 258.5,187.5C 256.167,187.5 253.833,187.5 251.5,187.5C 251.5,177.833 251.5,168.167 251.5,158.5C 253.833,158.5 256.167,158.5 258.5,158.5C 258.34,160.199 258.506,161.866 259,163.5C 259.949,161.907 261.115,160.574 262.5,159.5 Z"/></g>
<g><path style="opacity:0.153" fill="#424242" d="M 262.5,158.5 C 262.5,158.833 262.5,159.167 262.5,159.5C 261.115,160.574 259.949,161.907 259,163.5C 258.506,161.866 258.34,160.199 258.5,158.5C 256.167,158.5 253.833,158.5 251.5,158.5C 251.5,168.167 251.5,177.833 251.5,187.5C 251.167,187.5 250.833,187.5 250.5,187.5C 250.5,177.5 250.5,167.5 250.5,157.5C 254.03,156.989 257.196,157.656 260,159.5C 260.671,158.748 261.504,158.414 262.5,158.5 Z"/></g>
<g><path style="opacity:0.843" fill="#afafaf" d="M 199.5,188.5 C 196.833,189.833 194.167,189.833 191.5,188.5C 191.5,178.5 191.5,168.5 191.5,158.5C 194.167,158.5 196.833,158.5 199.5,158.5C 199.5,168.5 199.5,178.5 199.5,188.5 Z"/></g>
<g><path style="opacity:1" fill="#fefefe" d="M 192.5,159.5 C 194.5,159.5 196.5,159.5 198.5,159.5C 198.5,168.5 198.5,177.5 198.5,186.5C 196.5,186.5 194.5,186.5 192.5,186.5C 192.5,177.5 192.5,168.5 192.5,159.5 Z"/></g>
<g><path style="opacity:0.227" fill="#252525" d="M 85.5,158.5 C 85.1667,159.167 84.8333,159.833 84.5,160.5C 81.7891,162.275 79.7891,164.609 78.5,167.5C 78.9787,163.025 81.312,160.025 85.5,158.5 Z"/></g>
<g><path style="opacity:0.153" fill="#272727" d="M 131.5,158.5 C 135.833,159.5 138.5,162.167 139.5,166.5C 137.118,163.452 134.452,160.785 131.5,158.5 Z"/></g>
<g><path style="opacity:0.145" fill="#1f1f1f" d="M 269.5,158.5 C 271.293,164.554 268.96,167.554 262.5,167.5C 264.167,166.833 265.833,166.167 267.5,165.5C 268.11,164.609 268.443,163.609 268.5,162.5C 269.434,161.432 269.768,160.099 269.5,158.5 Z"/></g>
<g><path style="opacity:0.043" fill="#262626" d="M 221.5,162.5 C 220.962,164.117 220.629,165.784 220.5,167.5C 222.857,167.663 225.19,167.497 227.5,167C 228.545,165.474 230.045,164.641 232,164.5C 235.759,164.093 237.259,165.76 236.5,169.5C 231.921,169.936 227.587,170.936 223.5,172.5C 222.833,172.5 222.167,172.5 221.5,172.5C 222.347,171.034 223.68,170.2 225.5,170C 222.432,170.093 220.432,168.76 219.5,166C 219.387,164.301 220.053,163.134 221.5,162.5 Z M 229.5,166.5 C 237.368,167.372 237.368,168.372 229.5,169.5C 228.833,169.333 228.167,169.167 227.5,169C 228.381,168.292 229.047,167.458 229.5,166.5 Z"/></g>
<g><path style="opacity:0.012" fill="#1e1e1e" d="M 123.5,164.5 C 128.836,163.185 131.503,165.185 131.5,170.5C 127.833,170.5 124.167,170.5 120.5,170.5C 120.615,168.053 121.615,166.053 123.5,164.5 Z M 123.5,166.5 C 123.389,167.117 123.056,167.617 122.5,168C 125.167,168.667 127.833,168.667 130.5,168C 128.406,166.648 126.073,166.148 123.5,166.5 Z"/></g>
<g><path style="opacity:0.125" fill="#232323" d="M 186.5,158.5 C 188.778,166.472 186.112,172.305 178.5,176C 174.56,177.015 170.56,177.515 166.5,177.5C 166.815,181.371 166.482,185.038 165.5,188.5C 165.5,188.167 165.5,187.833 165.5,187.5C 165.5,183.5 165.5,179.5 165.5,175.5C 179.02,177.6 186.02,171.934 186.5,158.5 Z"/></g>
<g><path style="opacity:0.158" fill="#242424" d="M 112.5,167.5 C 111.38,174.644 113.047,180.977 117.5,186.5C 114.745,185.039 112.912,182.705 112,179.5C 111.188,175.311 111.355,171.311 112.5,167.5 Z"/></g>
<g><path style="opacity:0.749" fill="#9c9c9c" d="M 236.5,169.5 C 236.389,170.117 236.056,170.617 235.5,171C 231.49,171.501 227.49,172.001 223.5,172.5C 227.587,170.936 231.921,169.936 236.5,169.5 Z"/></g>
<g><path style="opacity:0.038" fill="#1b1b1b" d="M 260.5,169.5 C 260.666,175.842 260.5,182.175 260,188.5C 258.431,189.122 256.764,189.456 255,189.5C 253.014,189.431 251.514,188.765 250.5,187.5C 250.833,187.5 251.167,187.5 251.5,187.5C 253.833,187.5 256.167,187.5 258.5,187.5C 259.167,181.5 259.833,175.5 260.5,169.5 Z"/></g>
<g><path style="opacity:0.447" fill="#747474" d="M 267.5,165.5 C 265.833,166.167 264.167,166.833 262.5,167.5C 262.167,168.5 261.5,169.167 260.5,169.5C 259.833,175.5 259.167,181.5 258.5,187.5C 258.334,181.158 258.5,174.825 259,168.5C 261.196,165.875 264.03,164.875 267.5,165.5 Z"/></g>
<g><path style="opacity:0.282" fill="#3a3a3a" d="M 139.5,167.5 C 141.769,170.579 141.769,173.579 139.5,176.5C 133.5,176.5 127.5,176.5 121.5,176.5C 121.5,177.5 121.5,178.5 121.5,179.5C 120.566,178.432 120.232,177.099 120.5,175.5C 126.833,175.5 133.167,175.5 139.5,175.5C 139.5,172.833 139.5,170.167 139.5,167.5 Z"/></g>
<g><path style="opacity:0.022" fill="#121212" d="M 139.5,176.5 C 140.573,178.653 140.573,180.653 139.5,182.5C 139.5,181.5 139.5,180.5 139.5,179.5C 134.952,179.275 130.618,179.941 126.5,181.5C 125.167,181.333 123.833,181.167 122.5,181C 121.944,180.617 121.611,180.117 121.5,179.5C 121.5,178.5 121.5,177.5 121.5,176.5C 127.5,176.5 133.5,176.5 139.5,176.5 Z M 122.5,177.5 C 125.518,177.335 128.518,177.502 131.5,178C 128.136,181.414 125.136,181.248 122.5,177.5 Z"/></g>
<g><path style="opacity:0.502" fill="#343434" d="M 221.5,172.5 C 218.304,178.417 218.971,183.751 223.5,188.5C 219.444,187.235 217.444,184.402 217.5,180C 217.921,177.815 218.421,175.649 219,173.5C 219.671,172.748 220.504,172.414 221.5,172.5 Z"/></g>
<g><path style="opacity:0.075" fill="#212121" d="M 78.5,168.5 C 78.3054,172.915 78.8054,177.249 80,181.5C 84.2891,188.777 89.7891,190.11 96.5,185.5C 99.5836,187.101 102.917,187.768 106.5,187.5C 106.5,174.833 106.5,162.167 106.5,149.5C 103.833,149.5 101.167,149.5 98.5,149.5C 98.5,153.833 98.5,158.167 98.5,162.5C 98.5654,162.938 98.3988,163.272 98,163.5C 96.6288,161.959 95.1288,160.625 93.5,159.5C 91.0521,158.527 88.3854,158.194 85.5,158.5C 89.3774,155.955 93.2107,156.288 97,159.5C 97.1747,155.789 97.6747,152.122 98.5,148.5C 101.937,146.922 105.104,147.255 108,149.5C 107.333,162.167 107.333,174.833 108,187.5C 104.333,190.167 100.667,190.167 97,187.5C 87.6513,191.992 81.318,189.326 78,179.5C 77.1901,175.642 77.3567,171.976 78.5,168.5 Z"/></g>
<g><path style="opacity:0.047" fill="#232323" d="M 96.5,167.5 C 97.1174,167.611 97.6174,167.944 98,168.5C 98.6667,171.833 98.6667,175.167 98,178.5C 91.6295,183.52 87.7962,182.02 86.5,174C 86.1517,168.963 88.3183,165.797 93,164.5C 94.9078,164.715 96.0744,165.715 96.5,167.5 Z M 96.5,167.5 C 94.5454,166.677 92.5454,166.51 90.5,167C 86.8434,170.504 86.5101,174.337 89.5,178.5C 92.1953,180.943 94.6953,180.61 97,177.5C 97.6588,174.112 97.4922,170.779 96.5,167.5 Z"/></g>
<g><path style="opacity:0.047" fill="#212121" d="M 228.5,175.5 C 231.167,175.5 233.833,175.5 236.5,175.5C 236.306,181.858 233.139,183.858 227,181.5C 226.252,179.16 226.752,177.16 228.5,175.5 Z M 233.5,176.5 C 232.122,177.234 230.622,177.901 229,178.5C 228.383,179.449 228.549,180.282 229.5,181C 231.678,181.165 233.511,180.332 235,178.5C 235.528,177.184 235.028,176.517 233.5,176.5 Z"/></g>
<g><path style="opacity:0.078" fill="#1b1b1b" d="M 117.5,186.5 C 119.027,186.427 120.027,187.094 120.5,188.5C 118.973,188.573 117.973,187.906 117.5,186.5 Z"/></g>
<g><path style="opacity:0.192" fill="#202020" d="M 139.5,182.5 C 138.342,185.822 136.008,187.988 132.5,189C 128.283,191.091 124.283,190.924 120.5,188.5C 124.182,188.665 127.848,188.499 131.5,188C 134.436,186.381 137.102,184.548 139.5,182.5 Z"/></g>
<g><path style="opacity:0.192" fill="#2d2d2d" d="M 223.5,188.5 C 228.65,189.464 232.983,188.13 236.5,184.5C 237.386,185.325 237.719,186.325 237.5,187.5C 239.833,187.5 242.167,187.5 244.5,187.5C 244.802,179.444 244.469,171.444 243.5,163.5C 242.019,162.52 240.685,161.353 239.5,160C 235.514,159.501 231.514,159.334 227.5,159.5C 227.5,159.167 227.5,158.833 227.5,158.5C 233.411,156.006 238.911,157.006 244,161.5C 245.609,170.398 245.942,179.398 245,188.5C 241.644,190.037 238.477,189.703 235.5,187.5C 231.599,190.829 227.599,191.162 223.5,188.5 Z"/></g>
</svg>
